<svg xmlns="http://www.w3.org/2000/svg" width="149" height="95" viewBox="0 0 149 95" fill="none"><g clip-path="url(#clip0_95_596)"><path d="M69.1689 81.4533C68.5325 81.0081 67.7722 80.7814 66.8878 80.7814C66.0035 80.7814 65.21 81.004 64.5902 81.4451C64.2926 81.6553 64.0282 81.9068 63.8009 82.1954V77.8337H62.4702V90.7126H63.6562V89.3563C63.9124 89.7273 64.2141 90.0489 64.5736 90.3127C65.1894 90.7579 65.9456 90.9847 66.8382 90.9847C67.7308 90.9847 68.516 90.7621 69.1565 90.3127C69.7971 89.8592 70.2888 89.2491 70.6277 88.4782C70.9707 87.7072 71.1401 86.8415 71.1401 85.8768C71.1401 84.9122 70.9707 84.0505 70.6277 83.2837C70.293 82.5128 69.8095 81.9068 69.1731 81.4575L69.1689 81.4533ZM69.3962 87.8557C69.1731 88.4411 68.8383 88.9028 68.392 89.2408C67.9416 89.583 67.3796 89.752 66.7019 89.752C66.0241 89.752 65.4456 89.5871 64.9951 89.2532C64.5447 88.9193 64.21 88.4617 63.991 87.8763C63.7678 87.2867 63.6604 86.6189 63.6604 85.8727C63.6604 85.1265 63.7719 84.4463 63.991 83.8692C64.2141 83.2837 64.5447 82.8303 64.9869 82.5005C65.4373 82.1707 65.9993 82.0099 66.6771 82.0099C67.3548 82.0099 67.9416 82.1789 68.392 82.5211C68.8466 82.8591 69.1855 83.325 69.4086 83.9063C69.6318 84.4875 69.7392 85.1471 69.7392 85.8727C69.7392 86.5983 69.6235 87.2661 69.3962 87.8598V87.8557Z" fill="white"></path><path d="M76.2604 88.9893L73.0742 81.0493H71.6733L75.6157 90.6837L74.0206 95H75.3388L80.5499 81.0493H79.2027L76.2604 88.9893Z" fill="white"></path><path d="M93.745 84.706C93.4103 84.4545 93.0632 84.2649 92.7036 84.133C92.3524 83.9969 92.0424 83.8897 91.778 83.8196L89.2448 83.0776C88.91 82.9828 88.5629 82.8591 88.2034 82.7107C87.8521 82.5623 87.5505 82.3561 87.3067 82.0923C87.067 81.8285 86.9471 81.4822 86.9471 81.0452C86.9471 80.6082 87.0794 80.233 87.3438 79.8991C87.6083 79.5652 87.9637 79.3013 88.4141 79.1117C88.8687 78.9138 89.3894 78.8149 89.968 78.8149C90.5672 78.819 91.1126 78.9385 91.6127 79.1653C92.1168 79.3879 92.5301 79.7012 92.8524 80.1135C93.1747 80.5257 93.3814 81.0122 93.4723 81.5728L94.8567 81.3214C94.712 80.5505 94.4186 79.8867 93.9764 79.3261C93.5343 78.7613 92.9723 78.3243 92.2863 78.0192C91.6085 77.7141 90.8399 77.5616 89.9762 77.5616C89.1249 77.5575 88.3687 77.6977 87.7034 77.9821C87.038 78.2666 86.5132 78.6747 86.133 79.2065C85.7487 79.7383 85.5586 80.3649 85.5586 81.0946C85.5586 81.5234 85.6289 81.9068 85.7652 82.2407C85.9016 82.5746 86.0958 82.8673 86.3397 83.1188C86.5917 83.362 86.8851 83.5764 87.2199 83.7537C87.5546 83.9268 87.9183 84.0711 88.315 84.1824L91.592 85.1553C91.8152 85.2213 92.0424 85.3079 92.2739 85.4151C92.5094 85.514 92.7243 85.6459 92.9227 85.7985C93.121 85.9551 93.2781 86.1489 93.3979 86.388C93.5177 86.6189 93.5797 86.9033 93.5797 87.2372C93.5797 87.7443 93.4351 88.1813 93.15 88.5523C92.8607 88.9234 92.4681 89.2078 91.9639 89.4098C91.4598 89.6077 90.8936 89.7066 90.2572 89.7066C89.2944 89.7066 88.4637 89.4717 87.7695 89.0017C87.0752 88.5235 86.6207 87.868 86.4058 87.0352L85.0586 87.2578C85.2032 88.0205 85.509 88.6801 85.976 89.2325C86.4512 89.7891 87.0463 90.2178 87.7654 90.5188C88.4885 90.8156 89.3026 90.964 90.2076 90.964C90.8854 90.964 91.5094 90.8774 92.0755 90.7043C92.6499 90.5394 93.15 90.292 93.5756 89.9705C94.0054 89.6489 94.3401 89.2532 94.5715 88.7791C94.8112 88.3091 94.931 87.7732 94.931 87.1795C94.931 86.5859 94.8195 86.0582 94.6004 85.6583C94.3773 85.2584 94.0963 84.9369 93.7574 84.6936L93.745 84.706Z" fill="white"></path><path d="M104.58 82.8467C104.394 82.4551 104.151 82.1046 103.845 81.7996C103.547 81.4945 103.179 81.2554 102.741 81.074C102.312 80.8967 101.803 80.806 101.225 80.806C100.436 80.806 99.733 80.9792 99.1214 81.3255C98.6586 81.5852 98.2742 81.9439 97.9643 82.3891V77.8254H96.77V90.7043H98.1007V85.5511C98.1007 85.0028 98.1627 84.5122 98.2908 84.0835C98.4147 83.6547 98.6007 83.2919 98.8362 82.991C99.0801 82.6859 99.3817 82.4551 99.733 82.2943C100.093 82.1335 100.506 82.0511 100.973 82.0511C101.481 82.0511 101.911 82.1417 102.266 82.3273C102.626 82.5128 102.915 82.7725 103.138 83.1147C103.365 83.4486 103.531 83.8402 103.634 84.2937C103.737 84.739 103.787 85.2337 103.787 85.7696V90.696H105.118V85.3821C105.118 84.9451 105.076 84.5122 104.994 84.0752C104.911 83.6341 104.775 83.2177 104.589 82.8302L104.58 82.8467Z" fill="white"></path><path d="M114.275 86.2025C114.275 86.7466 114.213 87.2331 114.085 87.6701C113.961 88.0988 113.775 88.4657 113.527 88.7708C113.287 89.0676 112.99 89.2985 112.63 89.4593C112.275 89.6201 111.866 89.6984 111.399 89.6984C110.89 89.6984 110.456 89.6077 110.097 89.4222C109.746 89.2367 109.452 88.9769 109.225 88.643C109.006 88.305 108.841 87.9092 108.741 87.4557C108.638 87.0022 108.588 86.5117 108.588 85.9798V81.0534H107.258V86.3674C107.258 86.8044 107.299 87.2414 107.382 87.6825C107.464 88.1195 107.601 88.5317 107.787 88.9275C107.973 89.315 108.217 89.6613 108.514 89.9664C108.82 90.2714 109.188 90.5105 109.617 90.6919C110.055 90.8692 110.564 90.9599 111.142 90.9599C111.932 90.9599 112.634 90.7867 113.246 90.4404C113.709 90.1807 114.093 89.8221 114.403 89.3768V90.7208H115.589V81.0617H114.271V86.2148L114.275 86.2025Z" fill="white"></path><path d="M120.924 81.1853C120.589 81.2966 120.296 81.4657 120.044 81.6842C119.841 81.8408 119.651 82.0387 119.478 82.2819C119.407 82.3768 119.35 82.4798 119.288 82.5829V81.0493H118.102V90.7084H119.42V85.8892C119.42 85.5058 119.449 85.1224 119.502 84.7349C119.556 84.3432 119.664 83.9722 119.825 83.6259C119.986 83.2755 120.23 82.9745 120.552 82.7231C120.908 82.4386 121.292 82.2696 121.713 82.2242C122.131 82.1748 122.519 82.1995 122.87 82.2861V81.0534C122.589 80.9833 122.279 80.9586 121.936 80.9833C121.593 80.9998 121.259 81.0699 120.92 81.1895L120.924 81.1853Z" fill="white"></path><path d="M127.515 77.607C127.263 77.6358 127.019 77.7018 126.788 77.8048C126.553 77.8997 126.338 78.0563 126.139 78.2707C125.957 78.4603 125.829 78.6706 125.743 78.8973C125.66 79.1199 125.602 79.3508 125.573 79.594C125.548 79.8373 125.536 80.0846 125.536 80.3361V81.0534H123.854V82.1789H125.536V90.7125H126.854V82.1789H129.503V81.0534H126.854V80.1959C126.854 79.6724 126.978 79.2848 127.222 79.0416C127.474 78.7984 127.85 78.6747 128.354 78.6747H129.503V77.5657H128.263C128.015 77.5657 127.767 77.5822 127.507 77.6111L127.515 77.607Z" fill="white"></path><path d="M138.04 82.7148C137.784 82.0882 137.342 81.61 136.718 81.2843C136.102 80.9504 135.35 80.7855 134.466 80.7855C133.396 80.7855 132.524 81.0246 131.85 81.5028C131.181 81.981 130.734 82.6489 130.511 83.5146L131.796 83.8897C131.982 83.2466 132.305 82.7766 132.759 82.4757C133.222 82.1789 133.784 82.0305 134.449 82.0305C135.412 82.0305 136.09 82.2613 136.478 82.7189C136.838 83.1394 137.016 83.7825 137.028 84.6194C136.714 84.6648 136.371 84.7101 135.995 84.7555C135.425 84.8214 134.842 84.8998 134.243 84.9987C133.652 85.0894 133.11 85.1925 132.619 85.312C132.135 85.4357 131.705 85.6212 131.333 85.8562C130.97 86.0953 130.676 86.4004 130.462 86.7755C130.251 87.1466 130.147 87.5918 130.147 88.1154C130.147 88.6389 130.271 89.1006 130.515 89.5376C130.759 89.9746 131.131 90.3209 131.619 90.5848C132.115 90.8486 132.73 90.9764 133.462 90.9764C134.433 90.9764 135.263 90.7579 135.958 90.325C136.449 90.0158 136.846 89.6036 137.152 89.1006V90.7084H138.33V84.706C138.33 84.3473 138.313 83.9969 138.276 83.6506C138.239 83.3043 138.16 82.991 138.045 82.7107L138.04 82.7148ZM136.892 87.3032C136.809 87.7855 136.627 88.2225 136.342 88.6101C136.061 88.9893 135.689 89.2903 135.226 89.5129C134.763 89.7314 134.226 89.8427 133.61 89.8427C133.09 89.8427 132.672 89.7561 132.354 89.583C132.044 89.4098 131.817 89.1913 131.672 88.9316C131.536 88.6678 131.466 88.3998 131.466 88.1195C131.466 87.7732 131.544 87.4846 131.71 87.2537C131.875 87.0229 132.09 86.8374 132.346 86.6972C132.602 86.5529 132.871 86.4457 133.143 86.3674C133.548 86.2602 134.007 86.1695 134.507 86.0912C135.015 86.0129 135.532 85.9469 136.053 85.8851C136.392 85.8479 136.706 85.8067 137.011 85.7696C137.011 85.9139 137.011 86.0871 137.003 86.2849C136.999 86.656 136.958 86.994 136.888 87.3032H136.892Z" fill="white"></path><path d="M148.876 84.0917C148.793 83.6506 148.657 83.2343 148.471 82.8467C148.285 82.4551 148.041 82.1047 147.735 81.7996C147.434 81.4945 147.07 81.2554 146.632 81.074C146.202 80.8968 145.694 80.8061 145.115 80.8061C144.326 80.8061 143.624 80.9792 143.012 81.3255C142.549 81.5852 142.165 81.9439 141.855 82.3933V77.8296H140.661V90.7084H141.991V85.5552C141.991 85.0069 142.053 84.5164 142.181 84.0876C142.305 83.6589 142.491 83.2961 142.731 82.9951C142.975 82.6901 143.276 82.4592 143.628 82.2984C143.987 82.1377 144.401 82.0552 144.867 82.0552C145.376 82.0552 145.806 82.1459 146.161 82.3314C146.52 82.5169 146.81 82.7766 147.033 83.1188C147.26 83.4527 147.425 83.8444 147.525 84.2979C147.628 84.7431 147.678 85.2378 147.678 85.7737V90.7002H149.008V85.3862C149.008 84.9492 148.967 84.5164 148.884 84.0794L148.876 84.0917Z" fill="white"></path><path d="M19.4804 43.3733C17.6993 43.3733 15.7612 43.8021 13.6743 44.6554C11.6163 45.4758 9.81873 46.4694 8.27319 47.6319V35.12C8.27319 34.9839 8.26079 34.852 8.23599 34.7242V11.2051H15.7075V10.1415H8.23599V6.08488C8.23599 4.69971 8.55006 3.59074 9.17406 2.76211C9.8022 1.9376 10.7609 1.52122 12.0461 1.52122C13.166 1.52122 14.4553 1.85927 15.91 2.53537L16.3687 1.36869C14.538 0.457603 12.6743 0 10.7775 0C8.88066 0 7.27726 0.585402 6.07472 1.74796C4.87217 2.91464 4.26883 4.68321 4.26883 7.04956V10.1415H0V11.2051H4.26883V33.1205H4.2647V69.0156H8.27319V48.914C9.54185 48.0607 10.9841 47.3062 12.5916 46.659C14.2363 45.9747 15.7281 45.6325 17.0671 45.6325C20.1829 45.6984 21.7409 47.4588 21.7409 50.9135V69.0156H25.7535V50.1961C25.7535 47.8009 25.1873 46.0777 24.0551 45.0141C22.9269 43.9216 21.402 43.3733 19.4804 43.3733Z" fill="white"></path><path d="M35.9898 33.5163C35.9898 34.0564 36.1841 34.5222 36.5725 34.9098C36.961 35.2973 37.4279 35.491 37.9693 35.491H39.9529V10.1415H35.9898V29.9668C32.9731 32.1312 30.3655 33.2113 28.1629 33.2113C26.7744 33.2113 25.6463 32.7908 24.7826 31.9415C23.9189 31.0964 23.485 29.7772 23.485 27.988V10.1415H19.522V28.7507C19.522 31.084 20.0881 32.7908 21.2245 33.8709C22.361 34.951 23.8776 35.4952 25.7744 35.4952C28.7911 35.4952 32.1962 34.0935 35.9898 31.286V33.5163Z" fill="white"></path><path d="M56.218 33.9244C55.5733 33.9244 55.0485 33.842 54.6435 33.673C53.1517 32.9969 52.4079 31.5622 52.4079 29.3608V11.2051H59.8794V10.1415H52.4079V2.94348H50.4243C50.4243 5.51183 49.9739 7.35461 49.0771 8.47182C48.1804 9.58903 46.5439 10.1456 44.1719 10.1456V11.2092H48.4407V28.4497C48.4407 30.816 49.044 32.5805 50.2466 33.7472C51.4491 34.9138 53.0153 35.4951 54.9493 35.4951C56.8833 35.4951 58.7099 35.021 60.5406 34.077L60.0818 32.9598C58.6603 33.6029 57.371 33.9244 56.218 33.9244Z" fill="white"></path><path d="M71.0576 35.4952C74.0743 35.4952 77.4794 34.0935 81.273 31.286V33.5163C81.273 34.0564 81.4673 34.5222 81.8557 34.9098C82.2442 35.2973 82.7111 35.491 83.2525 35.491H85.2361V10.1415H81.273V29.9668C78.2563 32.1312 75.6487 33.2113 73.4461 33.2113C72.0576 33.2113 70.9295 32.7908 70.0658 31.9415C69.2021 31.0964 68.7682 29.7772 68.7682 27.988V10.1415H64.8052V28.7507C64.8052 31.084 65.3713 32.7908 66.5077 33.8709C67.6442 34.951 69.1608 35.4952 71.0576 35.4952Z" fill="white"></path><path d="M106.179 15.3153L109.076 12.2728C107.721 10.8547 106.163 10.1415 104.398 10.1415C103.382 10.1415 102.332 10.3765 101.245 10.8506C100.163 11.3247 99.2452 11.8235 98.5014 12.347C97.7575 12.8706 96.8897 13.5385 95.9103 14.3506V12.1203C95.9103 11.5802 95.7161 11.1144 95.3276 10.7269C94.9392 10.3394 94.4557 10.1456 93.8771 10.1456H91.8936V35.4993H95.9103V15.6203C98.146 13.8641 100.13 12.9489 101.857 12.883C103.551 12.883 104.989 13.6951 106.175 15.3153H106.179Z" fill="white"></path><path d="M132.512 30.9315L131.751 30.2224C130.123 31.9126 128.04 32.7577 125.499 32.7577C122.788 32.7577 120.263 31.8549 117.924 30.0451C115.585 28.2353 114.11 26.0133 113.502 23.3789H134.954C134.954 19.4914 133.863 16.3129 131.677 13.8476C129.491 11.3823 126.553 10.1456 122.858 10.1456C119.164 10.1456 116.333 11.3865 113.862 13.8724C111.386 16.3582 110.151 19.3471 110.151 22.8471C110.151 26.3472 111.386 29.3278 113.862 31.7972C116.333 34.2666 119.333 35.4992 122.858 35.4992C124.788 35.4992 126.594 35.0952 128.272 34.2831C129.949 33.4709 131.363 32.3579 132.516 30.9356L132.512 30.9315ZM112.94 17.8506C113.279 16.4984 113.94 15.3317 114.924 14.3506C116.618 12.6273 118.635 11.7657 120.974 11.7657C123.652 11.7657 125.953 12.8376 127.887 14.9854C129.817 17.1333 130.784 19.5573 130.784 22.2617H112.994C112.622 20.6746 112.606 19.2028 112.944 17.8506H112.94Z" fill="white"></path><path d="M43.4901 43.3734C39.961 43.3734 36.9443 44.639 34.4442 47.1661C31.944 49.6602 30.6919 52.6862 30.6919 56.2439C30.6919 59.8017 31.944 62.7741 34.4442 65.2682C36.9443 67.7624 39.961 69.0115 43.4901 69.0115C47.0192 69.0115 50.0855 67.7624 52.5898 65.2682C55.1271 62.7741 56.3917 59.7646 56.3917 56.2439C56.3917 52.7233 55.123 49.6644 52.5898 47.1661C50.0897 44.6349 47.0564 43.3734 43.4901 43.3734ZM51.817 64.4519C50.412 65.8536 48.6144 66.5544 46.42 66.5544C44.8786 66.5544 43.3 66.1958 41.6925 65.4785C40.118 64.7611 38.6593 63.7346 37.3245 62.403C35.0268 60.1109 33.6755 57.5673 33.2623 54.764C32.8862 51.9276 33.5557 49.652 35.2665 47.9453C36.6385 46.5436 38.4527 45.8428 40.7172 45.8428C42.2587 45.8428 43.8166 46.2014 45.3952 46.9187C47.0068 47.6361 48.478 48.6626 49.8169 49.9942C52.0774 52.2492 53.4163 54.7969 53.8254 57.6332C54.2387 60.4366 53.5692 62.7081 51.8212 64.4519H51.817Z" fill="white"></path><path d="M90.125 43.3734C87.3852 43.3734 84.0255 44.7915 80.0501 47.6278C79.7773 44.7915 78.2855 43.3734 75.5788 43.3734C74.0043 43.3734 72.2893 43.8186 70.438 44.7049C68.5866 45.5583 66.9585 46.5353 65.5534 47.6278V45.3728C65.5534 44.8245 65.3468 44.3628 64.9377 43.9876C64.5616 43.5754 64.0988 43.3734 63.5492 43.3734H61.5449V69.0156H65.5534V48.9141C68.4999 46.8281 71.0207 45.785 73.1117 45.785C75.0994 45.818 76.0912 47.0836 76.0912 49.5778V69.0115H80.0997V48.9099C83.0131 46.8239 85.5297 45.7809 87.6538 45.7809C89.6415 45.8139 90.6333 47.0795 90.6333 49.5737V69.0074H94.6418V48.6997C94.6418 45.1461 93.1335 43.3651 90.1168 43.3651L90.125 43.3734Z" fill="white"></path><path d="M121.457 47.1166C119.263 44.6225 116.3 43.3734 112.564 43.3734C108.828 43.3734 105.968 44.639 103.464 47.1661C100.964 49.6602 99.7119 52.6862 99.7119 56.2439C99.7119 59.8017 100.964 62.7741 103.464 65.2682C105.964 67.7624 108.998 69.0115 112.564 69.0115C114.519 69.0115 116.333 68.5992 118.015 67.7788C119.73 66.9585 121.168 65.8289 122.333 64.3942L121.56 63.6769C119.916 65.3878 117.808 66.2411 115.238 66.2411C112.498 66.2411 109.944 65.3342 107.58 63.5244C105.216 61.6775 103.725 59.4224 103.109 56.7551H124.8C124.8 52.8222 123.684 49.6108 121.457 47.1125V47.1166ZM102.592 55.6297C102.216 54.0219 102.2 52.5378 102.543 51.1691C102.886 49.8004 103.555 48.6214 104.547 47.6319C106.262 45.8881 108.299 45.0182 110.663 45.0182C113.37 45.0182 115.7 46.1107 117.655 48.2998C119.61 50.4518 120.585 52.8964 120.585 55.6338H102.592V55.6297Z" fill="white"></path><path d="M147.81 58.4495C146.917 56.6356 145.239 55.2339 142.772 54.2445L135.317 51.3711C133.983 50.8599 133.073 50.159 132.594 49.2686C132.148 48.3781 132.164 47.5577 132.644 46.8074C133.635 45.1996 135.524 44.3957 138.297 44.3957C141.07 44.3957 143.867 45.146 146.368 46.6508L146.983 45.6242C144.413 44.1195 141.466 43.3692 138.14 43.3692C135.673 43.3692 133.668 43.7815 132.127 44.6018C130.586 45.4222 129.54 46.4817 128.991 47.7803C128.441 49.1119 128.528 50.4641 129.247 51.8328C129.999 53.1644 131.284 54.1744 133.102 54.8587L140.814 57.8847C142.115 58.3629 143.144 59.0143 143.896 59.8347C144.648 60.655 145.062 61.4919 145.132 62.3494C145.202 63.2028 145.045 64.0397 144.669 64.8642C144.19 65.7876 143.4 66.5214 142.305 67.0697C141.21 67.618 139.888 67.8901 138.346 67.8901C136.528 67.8901 134.801 67.515 133.156 66.7605C131.544 66.0102 130.193 65.0497 129.094 63.8871L128.271 64.658C129.23 65.8907 130.619 66.9296 132.437 67.787C134.255 68.6074 136.222 69.0197 138.351 69.0197C140.818 69.0197 142.892 68.5415 144.57 67.585C146.285 66.6286 147.467 65.3795 148.116 63.8418C148.835 62.0279 148.731 60.2345 147.806 58.4577L147.81 58.4495Z" fill="white"></path></g><defs><clipPath id="clip0_95_596"><rect width="149" height="95" fill="white"></rect></clipPath></defs></svg>