<svg id="Layer_1" data-name="Layer 1" xmlns="http://www.w3.org/2000/svg" xmlns:xlink="http://www.w3.org/1999/xlink" viewBox="50.81 31 127.23 147.16"><defs><style>.cls-1{fill:none;}.cls-2{fill:#fff;}.cls-3{clip-path:url(#clip-path);}.cls-4{fill:url(#radial-gradient);}.cls-5{clip-path:url(#clip-path-2);}.cls-6{fill:url(#radial-gradient-2);}.cls-7{clip-path:url(#clip-path-3);}.cls-8{fill:url(#radial-gradient-3);}.cls-9{clip-path:url(#clip-path-4);}.cls-10{fill:url(#radial-gradient-4);}.cls-11{clip-path:url(#clip-path-5);}.cls-12{fill:url(#radial-gradient-5);}.cls-13{clip-path:url(#clip-path-6);}.cls-14{fill:url(#radial-gradient-6);}.cls-15{clip-path:url(#clip-path-7);}.cls-16{fill:#405153;}</style><clipPath id="clip-path"><polygon class="cls-1" points="75.38 144.91 75.47 155.01 114.6 132.61 114.59 122.47 75.38 144.91"></polygon></clipPath><radialGradient id="radial-gradient" cx="-1707.24" cy="812.82" r="1.01" gradientTransform="matrix(17.8, 0, 0, -17.8, 30479.91, 14605.13)" gradientUnits="userSpaceOnUse"><stop offset="0" stop-color="#fff"></stop><stop offset="1" stop-color="#fff"></stop></radialGradient><clipPath id="clip-path-2"><polygon class="cls-1" points="129.53 95.34 169.24 118.31 178.04 113.23 138.33 90.27 129.53 95.34"></polygon></clipPath><radialGradient id="radial-gradient-2" cx="-1715.25" cy="810.86" r="1.01" gradientTransform="matrix(19.57, 0, 0, -19.57, 33724.65, 15974.56)" xlink:href="#radial-gradient"></radialGradient><clipPath id="clip-path-3"><polygon class="cls-1" points="129.72 159.29 138.52 164.42 138.52 118.5 129.72 113.41 129.72 159.29"></polygon></clipPath><radialGradient id="radial-gradient-3" cx="-1708.6" cy="794.71" r="1.01" gradientTransform="matrix(18.08, 0, 0, -104.77, 31026.01, 83399.7)" xlink:href="#radial-gradient"></radialGradient><clipPath id="clip-path-4"><polygon class="cls-1" points="51.74 95.38 51.74 96.44 90.53 118.87 99.33 113.79 59.62 90.83 51.74 95.38"></polygon></clipPath><radialGradient id="radial-gradient-4" cx="-1715.29" cy="810.86" r="1.01" gradientTransform="matrix(19.57, 0, 0, -19.57, 33646.85, 15975.11)" xlink:href="#radial-gradient"></radialGradient><clipPath id="clip-path-5"><polygon class="cls-1" points="90.34 90.64 99.14 95.73 99.14 49.85 90.34 44.72 90.34 90.64"></polygon></clipPath><radialGradient id="radial-gradient-5" cx="-1708.62" cy="794.71" r="1.01" gradientTransform="matrix(18.08, 0, 0, -104.77, 30987.22, 83334.76)" xlink:href="#radial-gradient"></radialGradient><clipPath id="clip-path-6"><polygon class="cls-1" points="114.25 76.53 114.27 86.66 153.47 64.22 153.39 54.13 114.25 76.53"></polygon></clipPath><radialGradient id="radial-gradient-6" cx="-1707.21" cy="812.87" r="1.01" gradientTransform="matrix(17.8, 0, 0, -17.8, 30518.21, 14537.56)" xlink:href="#radial-gradient"></radialGradient><clipPath id="clip-path-7"><rect class="cls-1" x="-220" y="-196.7" width="852.17" height="602.54"></rect></clipPath></defs><path class="cls-2" d="M169.24,136.16,154,144.88l-39.36-22.4L75.38,144.92l-15.76-8.67V118.5L99.14,95.73V49.85l15.41-8.73,15,8.67V95.34l39.71,23Zm-30.91-45.9V44.72L114.6,31,90.34,44.72V90.64L50.82,113.41v28.05L75.47,155l39.13-22.4L154,155,178,141.27v-28Z"></path><g class="cls-3"><rect class="cls-4" x="75.38" y="122.48" width="39.22" height="32.53"></rect></g><g class="cls-5"><rect class="cls-6" x="129.53" y="90.26" width="48.51" height="28.04"></rect></g><path class="cls-2" d="M169.24,90.64l-39.52,22.77v45.88L114.31,168l-15-8.67V113.79l-39.71-23V73l15.29-8.72,39.36,22.4,39.2-22.44,15.77,8.67ZM153.39,54.13l-39.13,22.4L74.9,54.13,50.82,67.87v28l39.72,23v45.55l23.73,13.74,24.26-13.74V118.5L178,95.72v-28Z"></path><g class="cls-7"><rect class="cls-8" x="129.71" y="113.41" width="8.8" height="51.01"></rect></g><g class="cls-9"><rect class="cls-10" x="51.74" y="90.83" width="47.59" height="28.04"></rect></g><g class="cls-11"><rect class="cls-12" x="90.34" y="44.72" width="8.8" height="51.01"></rect></g><g class="cls-13"><rect class="cls-14" x="114.26" y="54.13" width="39.22" height="32.53"></rect></g><polygon class="cls-2" points="153.95 155.01 153.95 144.88 114.59 122.48 114.6 132.61 153.95 155.01"></polygon><polygon class="cls-2" points="138.33 44.72 138.33 90.27 129.53 95.34 129.53 49.79 138.33 44.72"></polygon><polygon class="cls-2" points="114.27 86.66 74.91 64.26 74.91 54.13 114.26 76.53 114.27 86.66"></polygon><polygon class="cls-2" points="99.14 95.73 59.62 118.5 50.81 113.41 90.34 90.64 99.14 95.73"></polygon></svg>